<?xml version="1.0" standalone="no"?>
<!DOCTYPE svg PUBLIC "-//W3C//DTD SVG 20010904//EN"
 "http://www.w3.org/TR/2001/REC-SVG-20010904/DTD/svg10.dtd">
<svg version="1.0" xmlns="http://www.w3.org/2000/svg"
 width="550.000000pt" height="550.000000pt" viewBox="0 0 550.000000 550.000000"
 preserveAspectRatio="xMidYMid meet">
<metadata>
Created by potrace 1.14, written by Peter Selinger 2001-2017
</metadata>
<g transform="translate(0.000000,550.000000) scale(0.100000,-0.100000)"
fill="#000000" stroke="none">
<path d="M485 5226 c-106 -21 -211 -80 -295 -165 -87 -87 -132 -165 -160 -277
-20 -76 -20 -118 -20 -2028 0 -1677 2 -1961 15 -2021 42 -200 186 -364 393
-444 l67 -26 2240 -3 2240 -2 75 21 c218 60 376 221 437 446 4 15 9 924 10
2018 l2 1990 -27 81 c-65 193 -202 332 -392 397 l-65 22 -2230 2 c-1706 1
-2244 -2 -2290 -11z m4514 -421 c27 -18 54 -48 68 -75 l23 -45 -3 -1940 c-2
-1929 -2 -1940 -22 -1979 -12 -21 -40 -53 -64 -70 l-43 -31 -2181 -3 c-1656
-2 -2192 0 -2225 9 -24 7 -59 27 -77 45 -70 68 -65 -100 -65 2038 l1 1931 22
42 c25 47 74 91 114 103 16 5 1014 8 2218 7 l2190 -2 44 -30z"/>
<path d="M1015 4684 c-170 -43 -337 -175 -409 -326 -86 -180 -86 -412 0 -588
46 -94 150 -200 247 -254 37 -21 149 -69 250 -107 100 -38 205 -84 233 -101
l51 -30 -9 -47 c-6 -25 -12 -55 -14 -66 -2 -11 -11 -51 -19 -90 -9 -38 -14
-78 -11 -88 12 -46 -164 -69 -257 -33 -82 31 -130 105 -144 226 l-6 49 -56 -5
c-31 -3 -119 -11 -196 -17 l-140 -12 1 -85 c2 -233 142 -461 344 -558 90 -44
215 -72 317 -72 l55 0 -6 -32 c-18 -119 -23 -128 -59 -129 -55 -1 -91 -10
-109 -25 -39 -36 -29 -109 17 -134 26 -14 30 -23 39 -80 3 -19 8 -47 11 -62
29 -158 38 -218 32 -224 -3 -3 -26 -6 -52 -6 -58 0 -71 -13 -113 -116 -24 -59
-47 -95 -97 -148 -35 -38 -65 -72 -65 -76 0 -4 -6 -13 -13 -20 -39 -41 -77
-140 -93 -243 -9 -56 -10 -156 -2 -161 5 -3 6 -10 3 -15 -8 -12 27 -88 51
-114 11 -11 32 -31 48 -45 l29 -25 -26 45 c-33 57 -54 154 -52 240 2 79 32
158 98 257 45 67 163 200 171 192 2 -2 -4 -36 -15 -76 -28 -113 -45 -253 -30
-253 3 0 12 23 19 52 6 28 21 70 32 93 25 51 101 128 149 151 19 9 43 25 53
34 19 17 18 17 -6 17 -35 0 -70 25 -88 64 -24 47 -14 62 36 56 49 -7 67 2 62
30 -3 11 -7 38 -10 59 -4 22 -11 64 -16 94 -5 30 -12 73 -15 95 -3 22 -8 51
-11 65 -3 14 -8 41 -10 60 -4 35 -3 36 31 38 19 2 35 -1 36 -5 0 -4 2 -15 4
-23 3 -15 26 -161 30 -190 3 -19 13 -79 27 -149 l10 -54 25 29 c13 16 36 42
50 57 17 20 26 44 28 75 4 47 9 104 20 216 5 51 4 58 -10 52 -9 -3 -20 -6 -24
-6 -4 0 -7 -8 -8 -18 -1 -9 -4 -33 -7 -52 -3 -19 -8 -61 -12 -93 -4 -31 -10
-57 -14 -57 -4 0 -11 19 -15 43 -4 23 -9 47 -10 52 -21 75 -30 147 -21 151 93
31 270 40 301 14 37 -30 7 -206 -43 -259 -37 -38 -73 -81 -68 -81 2 0 20 7 40
15 20 8 36 11 36 6 0 -13 -102 -101 -117 -101 -16 0 -66 -47 -80 -75 -6 -11
-13 -40 -17 -64 -8 -58 -25 -107 -55 -156 -26 -42 -42 -142 -30 -186 4 -13 8
-19 9 -14 8 46 14 63 39 114 33 65 81 117 135 146 20 11 36 23 36 27 0 5 6 8
14 8 38 0 136 138 136 193 0 19 37 37 76 37 13 0 25 6 26 13 0 6 2 17 2 23 1
6 7 18 15 27 22 27 -2 127 -31 127 -7 0 -8 11 -4 33 4 17 9 43 12 57 3 14 8
34 11 45 4 11 8 25 9 30 1 6 5 22 8 37 3 16 8 38 11 50 2 13 13 61 24 108 10
47 33 150 51 230 17 80 34 152 37 160 3 8 7 28 9 44 9 69 14 29 14 -118 l0
-157 383 3 c379 4 383 4 467 30 46 15 88 24 91 22 8 -4 17 -58 22 -119 2 -22
15 -78 30 -125 62 -203 79 -262 75 -266 -3 -2 -23 -6 -44 -8 -63 -5 -84 -24
-83 -71 2 -28 3 -32 6 -14 6 40 33 58 88 61 43 3 50 0 53 -17 2 -11 6 -27 9
-35 7 -15 10 -28 15 -64 3 -17 -6 -19 -87 -24 -49 -3 -108 -5 -130 -6 -50 -1
-76 -31 -81 -89 -3 -40 -3 -40 6 -12 23 68 37 75 164 81 l116 6 1 -24 c1 -13
1 -51 1 -86 -1 -68 -1 -67 77 -64 19 1 22 -1 12 -11 -18 -18 -342 -17 -364 2
-26 21 -22 -9 4 -38 31 -34 66 -44 149 -47 178 -4 189 -6 205 -30 20 -31 4
-42 -70 -48 -33 -2 -60 -5 -60 -6 0 0 -27 -3 -61 -5 -33 -3 -77 -11 -97 -20
-21 -8 -69 -22 -108 -30 -39 -8 -79 -20 -90 -25 -22 -12 -26 2 -5 19 14 11 27
15 91 26 17 3 58 15 92 26 33 11 83 22 110 24 26 3 57 7 68 9 11 3 31 5 45 5
15 1 20 4 13 9 -14 9 -404 7 -451 -2 -48 -9 -172 -51 -228 -77 -50 -22 -70
-42 -91 -91 -10 -23 -9 -27 5 -31 16 -4 16 -5 0 -6 -11 -1 -20 -14 -25 -38 -7
-36 -7 -45 -4 -75 1 -9 17 -13 46 -12 25 0 48 -3 51 -8 4 -7 -63 -14 -89 -9
-13 2 3 -101 19 -126 8 -13 27 -29 43 -37 62 -33 325 -52 430 -32 14 3 55 8
91 11 61 5 127 12 195 20 17 2 57 6 90 9 33 3 80 9 105 13 25 4 48 7 52 8 3 0
20 10 37 22 30 23 37 43 44 128 l3 40 107 0 c64 0 108 -4 109 -10 0 -5 1 -35
2 -65 l1 -55 53 2 c28 0 52 -3 52 -8 0 -5 -13 -10 -30 -10 -16 -1 -34 -3 -40
-4 -5 -1 -17 -3 -25 -4 -19 -1 -10 -77 14 -110 43 -60 59 -65 224 -67 84 0
158 1 164 4 21 7 -59 55 -97 58 -19 1 -39 3 -43 3 -5 1 -5 6 -2 11 3 6 21 10
40 10 l34 0 -6 48 c-3 26 -6 77 -7 115 -1 61 -5 72 -28 68 -17 -2 -7 18 9 21
10 2 18 10 19 18 1 8 2 25 2 37 1 13 19 41 39 64 40 44 147 118 172 120 33 2
107 -2 126 -7 l20 -5 -20 13 c-32 20 -50 21 -242 21 -186 1 -222 -5 -303 -45
l-35 -17 39 -1 c48 0 43 -8 -10 -15 -21 -3 -45 -8 -51 -10 -7 -2 -13 2 -13 9
0 20 58 66 90 73 15 3 32 14 37 26 9 20 16 20 179 18 93 -1 197 -3 232 -5 69
-2 83 8 25 18 -56 10 -73 16 -73 26 0 5 6 7 13 5 6 -3 30 -7 52 -9 22 -3 51
-7 65 -11 59 -13 129 -13 141 1 7 8 10 16 8 18 -2 2 -44 13 -94 25 -49 12
-101 24 -115 28 -14 3 -29 7 -35 8 -5 0 -27 5 -47 9 -51 11 -49 30 1 21 39 -6
39 -6 35 24 l-5 30 87 -30 c48 -17 96 -35 106 -40 16 -8 18 -5 18 23 0 27 -5
36 -30 46 -17 8 -52 15 -78 17 -94 6 -96 8 -97 123 -1 116 -11 110 111 60 126
-52 126 -52 133 -175 1 -7 4 -13 9 -13 7 0 6 117 -3 155 -2 11 -19 26 -37 33
-18 7 -41 18 -50 23 -10 5 -24 9 -32 9 -8 0 -17 14 -21 32 -7 31 -24 52 -85
100 -23 18 -25 26 -27 121 -3 166 -8 182 -56 216 -23 15 -62 38 -87 51 -55 27
-50 23 -55 48 -3 20 -2 20 51 -4 30 -13 96 -31 147 -40 363 -63 688 141 815
511 56 165 55 152 59 948 l4 737 -210 0 -210 0 -3 -712 c-3 -710 -3 -713 -26
-780 -29 -86 -84 -155 -153 -192 -74 -41 -188 -48 -271 -17 -109 42 -187 153
-208 296 -5 41 -10 343 -10 738 l0 667 -211 0 -210 0 4 -727 c5 -794 4 -792
65 -967 41 -120 112 -233 197 -315 38 -37 77 -72 87 -77 9 -5 19 -26 22 -46
l6 -38 -63 0 c-66 -1 -193 -8 -239 -14 -16 -2 -29 2 -29 8 -1 6 -2 16 -4 21
-1 6 -3 15 -3 21 -2 14 -36 24 -49 15 -13 -8 -23 -61 -12 -61 15 0 10 -19 -11
-40 -15 -15 -20 -34 -21 -82 -1 -35 -2 -88 -4 -118 -9 -150 -17 -311 -18 -362
-1 -32 -6 -59 -11 -60 -11 -3 -12 268 -1 513 7 165 6 168 -20 240 -15 41 -28
81 -30 89 -2 8 -24 69 -48 135 l-44 120 39 78 c89 180 129 353 129 572 0 271
-60 475 -198 684 -101 151 -231 265 -388 337 -137 63 -162 66 -572 71 l-373 5
0 -221 c0 -122 -2 -221 -4 -221 -2 0 -24 12 -50 26 -32 18 -57 25 -83 22 l-38
-3 -45 84 c-75 141 -180 234 -329 289 -55 21 -88 25 -201 28 -97 3 -152 -1
-195 -12z m306 -469 c54 -38 89 -105 96 -182 l5 -58 64 5 c54 5 63 3 60 -10
-10 -33 -25 -96 -30 -125 -13 -74 -23 -100 -37 -97 -48 11 -316 114 -383 147
-59 30 -86 49 -100 74 -37 65 -16 170 46 228 42 40 88 53 165 50 61 -2 78 -7
114 -32z m1358 -26 c108 -25 219 -105 287 -206 74 -112 123 -310 109 -442 -8
-76 -35 -201 -43 -201 -3 0 -29 23 -57 50 -30 30 -64 53 -81 56 -16 3 -38 13
-49 23 -11 10 -33 29 -50 43 -175 149 -402 344 -407 352 -4 6 -8 84 -8 174 l0
162 128 0 c70 0 147 -5 171 -11z m-944 -381 c9 -58 15 -141 13 -182 -1 -42 -3
-76 -3 -76 -1 0 -24 22 -52 49 l-50 48 31 141 c17 77 34 138 38 134 3 -4 13
-55 23 -114z m702 -173 c8 -5 19 -14 26 -20 204 -167 197 -164 359 -216 84
-27 165 -55 181 -61 28 -11 37 -28 14 -28 -13 0 -122 33 -157 47 -8 3 -26 8
-40 10 -14 2 -29 8 -34 14 -6 5 -16 9 -24 9 -7 0 -62 23 -120 51 -59 28 -142
67 -184 87 l-78 37 0 59 0 59 22 -19 c12 -10 28 -23 35 -29z m5 -404 c120 -65
333 -184 338 -188 8 -7 -23 -23 -80 -39 l-55 -17 -65 34 c-36 18 -95 51 -132
73 l-68 40 0 63 c0 35 2 63 5 63 2 0 28 -13 57 -29z m36 -188 c48 -25 89 -48
91 -50 2 -1 -39 -3 -92 -3 l-97 0 0 50 c0 28 3 50 6 50 3 0 44 -21 92 -47z
m766 -374 c14 -69 25 -145 25 -170 0 -24 2 -55 4 -69 3 -14 8 -52 12 -85 4
-33 11 -82 15 -108 4 -26 4 -50 0 -52 -6 -4 -17 14 -95 160 -71 133 -99 183
-132 238 -20 32 -31 62 -27 66 60 49 106 82 110 79 2 -3 23 -41 45 -84 41 -81
43 -79 22 21 -19 94 -23 118 -17 127 10 15 12 8 38 -123z m-1550 -91 c-3 -51
-6 -136 -8 -188 l-4 -95 -28 2 c-16 1 -45 5 -64 8 -19 4 -52 8 -73 9 l-37 1 6
60 c8 82 11 116 13 145 1 19 13 30 51 49 26 13 69 41 95 62 26 22 49 39 51 39
1 0 1 -42 -2 -92z m1445 -257 l139 -278 -46 2 c-26 2 -61 3 -79 4 -29 1 -33 5
-43 44 -6 23 -15 53 -20 67 -4 14 -16 52 -25 85 -10 33 -20 67 -23 75 -3 8 -6
20 -7 25 -11 48 -37 120 -44 125 -6 3 -12 17 -15 30 -11 56 -15 71 -21 79 -6
11 26 32 37 25 4 -3 70 -130 147 -283z m-1694 122 c-4 -43 -7 -89 -9 -102 -1
-19 -9 -25 -30 -28 -16 -2 -36 -1 -45 3 -9 4 -20 6 -25 5 -4 -1 -6 9 -3 21 3
13 11 53 18 90 12 65 14 67 48 76 20 6 40 10 44 11 5 1 5 -34 2 -76z m2439 27
c22 0 52 -41 39 -54 -6 -6 -7 -20 -18 -271 -4 -93 -9 -171 -10 -173 -4 -4 -49
-8 -190 -18 -153 -11 -190 -11 -188 3 2 6 5 76 8 155 6 175 14 275 26 305 13
35 43 44 162 50 62 3 114 7 116 10 3 2 11 1 19 -2 7 -3 24 -5 36 -5z m164 -42
c96 -53 89 -28 89 -298 l0 -240 -81 -47 c-45 -26 -83 -50 -86 -54 -14 -19
-101 -31 -251 -35 -202 -5 -210 -1 -208 82 1 30 6 57 11 60 5 3 30 7 56 10
138 11 183 15 248 19 l71 4 1 -46 c1 -54 12 -69 39 -55 16 9 19 22 18 92 l-1
81 31 -5 c16 -3 45 -8 63 -11 19 -3 39 -7 45 -8 7 -1 12 7 12 17 0 15 -14 23
-62 36 -35 9 -63 15 -63 12 0 -2 -6 1 -14 7 -12 10 -15 179 -5 359 3 62 8 63
87 20z"/>
<path d="M4206 1935 c-5 -13 14 -25 40 -25 22 0 16 14 -10 26 -19 9 -26 9 -30
-1z"/>
<path d="M1916 1773 c-14 -13 -38 -47 -52 -76 -31 -60 -84 -146 -105 -167 -19
-20 -75 -108 -88 -140 -6 -14 -15 -32 -20 -40 -35 -60 -54 -141 -54 -230 0
-124 20 -202 70 -268 14 -18 22 -36 18 -40 -3 -4 -36 -7 -73 -8 -37 -1 -110
-4 -162 -8 -77 -5 -172 -10 -348 -19 -20 -1 -2 -12 21 -13 69 -4 208 -15 247
-20 25 -3 68 -7 95 -8 28 -2 91 -7 140 -12 107 -10 314 -11 370 -3 22 3 59 12
82 19 l41 13 -72 71 c-70 69 -106 128 -141 225 -18 51 -18 51 -7 51 5 0 14
-12 21 -27 39 -86 200 -271 223 -257 4 3 8 0 8 -6 0 -16 65 -40 97 -36 133 19
216 37 241 52 19 12 21 18 11 35 -6 11 -13 18 -16 15 -4 -3 -11 -2 -17 3 -40
32 -180 96 -232 105 -30 6 -90 45 -122 79 -37 40 -70 110 -90 194 -8 34 -8
286 1 328 14 70 16 151 4 174 -19 38 -59 44 -91 14z"/>
<path d="M4140 1463 c-8 -3 -19 -10 -25 -14 -5 -5 -34 -27 -62 -49 -83 -63
-87 -74 -86 -209 2 -190 8 -208 77 -243 28 -14 32 -13 123 39 52 29 98 53 103
53 5 0 10 3 12 8 2 4 25 18 51 32 57 29 85 58 93 91 10 44 6 160 -6 189 -12
29 -84 93 -110 98 -38 7 -157 11 -170 5z"/>
</g>
</svg>
